<svg id="Layer_1" data-name="Layer 1" xmlns="http://www.w3.org/2000/svg" xmlns:xlink="http://www.w3.org/1999/xlink" viewBox="0 0 2000 2000"><defs><style>.cls-1{fill:url(#linear-gradient);}</style><linearGradient id="linear-gradient" x1="1000" y1="723.8" x2="1000" y2="1521.34" gradientUnits="userSpaceOnUse"><stop offset="0" stop-color="#0ce4af"/><stop offset="0.51" stop-color="#18a5fe"/><stop offset="1" stop-color="#4c3dfb"/></linearGradient></defs><title>Artboard 1</title><path class="cls-1" d="M1425.16,885v1.37c-.44,91-42,175.32-98.52,247.87a3.26,3.26,0,0,1-5.81-2.23,249.35,249.35,0,0,0,.58-33l-.26-3.59v-1.77l-.2-2.36a230.54,230.54,0,0,0-8-43.25,27.35,27.35,0,0,1,2.64-20.81c25-45,40.79-93,40.79-142.66,0-4.25-.13-8.5-.26-12.76a235.27,235.27,0,0,0-8.51-50.83C1332.2,766.23,1294.78,719.79,1245.2,694c-3-1.44-6-3-9-4.25a184.1,184.1,0,0,0-139-6.94,97.29,97.29,0,0,0-9.29,3.8,187.32,187.32,0,0,0-41.54,23.09l0,0h0l-.12.12,0,0a179.82,179.82,0,0,0-20.74,17.27,9.29,9.29,0,0,1-1.11,1l-1.57,1.57a34.39,34.39,0,0,1-48.15.33c0-.2-.13-.2-.33-.33l-1.54-1.42h0l0,0a7,7,0,0,0-.9-1q-3.69-3.57-7.54-6.92c-1.28-1.11-2.6-2.14-3.89-3.21s-2.63-2.22-4-3.27-2.61-1.95-3.92-2.93-2.83-2.14-4.27-3.15l-.46-.32c-1.24-.86-2.49-1.68-3.74-2.51-1.45-1-2.89-2-4.35-2.89-.14-.1-.27-.16-.42-.27s-.53-.3-.82-.48c-.11-.07-.16-.08-.28-.16-27.2-14.78-72-32.7-123.08-26.91h0l-.13,0c-3.43.46-6.86.93-10.28,1.55-.44.08-.88.2-1.32.28-3.06.6-6.18,1.26-9.21,1.94-3.46.92-7.06,1.9-10.53,3.14-1.11.3-2.22.67-3.33,1s-2.48.8-3.71,1.24-2.24.79-3.36,1.21c-1.41.51-2.82,1.11-4.23,1.68-3.3,1.34-6.57,2.78-9.77,4.44-1.23.49-2.4,1-3.56,1.59-.33.16-.7.29-1,.47-1.24.59-2.49,1.37-3.73,2l-1.7.92c-1.43.79-2.83,1.59-4.3,2.38-2,1.11-3.77,2.45-5.68,3.63-55.52,35.86-95.15,104.12-95.77,167.34-.63,49.71,23.43,101,62.6,133.54,69.05,57.41,131.33,35.86,227.12-3.93,75.34-31.3,160.6-66.85,251.82-30.52,45,17.93,78.65,69.21,83.84,127.72v.79c0,.82.12,2.31.26,4.11,0,.28,0,.49.06.79a196.09,196.09,0,0,1-2.81,44.16,23.4,23.4,0,0,1-.66,2.88q-1.23,6-3,12.32c-.06.21-.11.42-.17.63s-.09.3-.13.45c-8.63,30.83-26.62,66-61.54,100.76-16.52,16.51-36.81,33-61.82,48.91a2.28,2.28,0,0,1-.52.4s0,.05-.1.07c-23.94,17.6-46.12,32.58-64.83,44.68-1.63,1.05-3.2,2-4.77,3.08-29.7,18.84-50,30.09-53.91,32.12a34.13,34.13,0,0,1-32.51,0c-9.16-5-110.3-60.71-209.86-149.87-36.82-33-73.54-70.62-105.13-112a3.22,3.22,0,0,1,4.21-4.71,256.56,256.56,0,0,0,35.56,17,245.74,245.74,0,0,0,66.62,15.1,27.92,27.92,0,0,1,17.15,7.67c15,14.53,30.29,28.43,45.63,41.4,67,57.11,132.41,98.13,162,115.73,8-4.71,18.64-11.25,31.33-19.3,1.51-1,3.08-2,4.71-3a1220.18,1220.18,0,0,0,122.66-90.74h0l0,0c40.58-43.41,45.3-83.68,43.26-107.43-3.31-36.18-23.44-63.07-40.9-70-65.28-26-130.86,1.25-200.07,30-71.88,29.88-151.63,62.91-233.73,31.61h0c-1.81-.69-3.62-1.46-5.43-2.21-19.29-8-38.71-19.76-58.26-36a244.38,244.38,0,0,1-70-96.38,236.13,236.13,0,0,1-17.3-90.63c.08-7.17.63-14.35,1.39-21.53,5.11-48.35,25.23-96.52,55.7-136.83,19.77-26.16,43.8-49,70.93-66.42,1.73-1.12,3.52-2.09,5.28-3.14,2.44-1.49,4.85-3,7.32-4.4.95-.47,1.89-1.1,2.84-1.57a13.76,13.76,0,0,1,2.2-1.11c4.56-2.35,9.28-4.71,14-6.76.15-.31.31-.31.63-.31,1.34-.61,2.73-1.2,4.1-1.79,2-.87,4-1.69,6-2.49,1.3-.52,2.6-1.06,3.9-1.54q6.86-2.6,13.69-4.72c.44-.14.9-.24,1.34-.38,3.31-1,6.61-1.9,10-2.78.37-.1.71-.21,1.07-.3q6.12-1.54,12.3-2.77a253.35,253.35,0,0,1,185.63,32.9l.42.22a.67.67,0,0,1,.4.14h.07l.05,0a36.3,36.3,0,0,1,4.9,3c.13.09.27.15.4.25A3.2,3.2,0,0,1,981,647a148,148,0,0,1,17.9,12.56h0A257.65,257.65,0,0,1,1040.57,633c1.63-.85,3.33-1.7,5-2.55a261.55,261.55,0,0,1,29-12.23,251.26,251.26,0,0,1,145.5-6.61,273.82,273.82,0,0,1,56.78,21.72c66.33,34.41,116.25,96.1,136.79,169.11A302.49,302.49,0,0,1,1425.16,885Z"/></svg>