<svg id="Layer_1" data-name="Layer 1" xmlns="http://www.w3.org/2000/svg" xmlns:xlink="http://www.w3.org/1999/xlink" viewBox="0 0 2000 2000"><defs><style>.cls-1{fill:url(#linear-gradient);}</style><linearGradient id="linear-gradient" x1="1000" y1="871.35" x2="1000" y2="1198.88" gradientUnits="userSpaceOnUse"><stop offset="0" stop-color="#0ce4af"/><stop offset="0.36" stop-color="#18a5fe"/><stop offset="1" stop-color="#4c3dfb"/></linearGradient></defs><title>Artboard 1 copy 3</title><path class="cls-1" d="M761,952.76v.56c-.18,37.38-17.25,72-40.46,101.8a1.34,1.34,0,0,1-2.39-.92,102.25,102.25,0,0,0,.24-13.56l-.11-1.48v-.73l-.08-1a95,95,0,0,0-3.27-17.77,11.24,11.24,0,0,1,1.08-8.54c10.29-18.49,16.75-38.2,16.75-58.59,0-1.75,0-3.49-.1-5.24a96.89,96.89,0,0,0-3.5-20.87,84.81,84.81,0,0,0-42.07-52.12c-1.21-.59-2.44-1.24-3.68-1.75a75.62,75.62,0,0,0-57.09-2.85,39.53,39.53,0,0,0-3.81,1.56,76.49,76.49,0,0,0-17.06,9.49h0l-.05.05v0a73.36,73.36,0,0,0-8.51,7.09,3.77,3.77,0,0,1-.46.4l-.65.65a14.12,14.12,0,0,1-19.77.13c0-.08,0-.08-.13-.13l-.64-.59h0v0a3.39,3.39,0,0,0-.37-.43c-1-1-2.05-1.93-3.1-2.84-.52-.46-1.06-.88-1.6-1.32s-1.07-.91-1.63-1.34-1.07-.81-1.61-1.21-1.16-.88-1.75-1.29l-.19-.13c-.51-.36-1-.69-1.54-1s-1.18-.8-1.78-1.18l-.17-.11-.34-.2s-.07,0-.12-.07c-11.17-6.07-29.56-13.42-50.54-11h-.08c-1.4.2-2.81.39-4.22.64l-.54.12c-1.25.24-2.54.51-3.78.8-1.42.37-2.9.77-4.33,1.28l-1.36.42c-.51.17-1,.33-1.53.51l-1.38.5c-.58.21-1.16.45-1.73.69-1.36.55-2.7,1.14-4,1.82-.5.2-1,.42-1.46.65-.13.07-.28.12-.42.2-.51.24-1,.56-1.53.83l-.7.38-1.76,1c-.81.45-1.55,1-2.34,1.49-22.79,14.73-39.07,42.76-39.33,68.72-.26,20.41,9.63,41.47,25.71,54.84,28.36,23.58,53.94,14.73,93.28-1.61,30.94-12.86,65.95-27.46,103.41-12.53,18.48,7.36,32.3,28.42,34.43,52.45v.32c0,.34.05,1,.11,1.69,0,.11,0,.2,0,.32a80.2,80.2,0,0,1-1.15,18.14,10,10,0,0,1-.27,1.18q-.51,2.48-1.22,5.06l-.06.26-.06.18c-3.55,12.66-10.93,27.1-25.27,41.38A147.78,147.78,0,0,1,643.49,1128a.72.72,0,0,1-.21.16s0,0,0,0c-9.84,7.23-18.94,13.38-26.63,18.35l-2,1.27c-12.2,7.73-20.53,12.35-22.14,13.19a14,14,0,0,1-13.35,0A499,499,0,0,1,493,1099.45c-15.12-13.57-30.19-29-43.17-46a1.32,1.32,0,0,1,1.73-1.93,105,105,0,0,0,14.61,7,100.64,100.64,0,0,0,27.36,6.21,11.39,11.39,0,0,1,7,3.15c6.16,6,12.44,11.67,18.75,17a500.54,500.54,0,0,0,66.52,47.52c3.27-1.93,7.65-4.62,12.87-7.92l1.93-1.24A501.72,501.72,0,0,0,651,1086h0c16.67-17.83,18.61-34.36,17.77-44.12-1.36-14.86-9.63-25.9-16.8-28.74-26.8-10.66-53.74.51-82.16,12.33-29.52,12.28-62.27,25.84-96,13h0c-.74-.29-1.48-.6-2.23-.91a94.17,94.17,0,0,1-23.92-14.79,100.4,100.4,0,0,1-28.75-39.58,96.89,96.89,0,0,1-7.1-37.22c0-2.94.26-5.89.57-8.84,2.1-19.86,10.36-39.64,22.87-56.2a114,114,0,0,1,29.13-27.27c.71-.46,1.45-.86,2.17-1.29,1-.61,2-1.24,3-1.81.38-.19.77-.45,1.16-.64a5.47,5.47,0,0,1,.9-.46c1.88-1,3.82-1.93,5.75-2.77.07-.13.13-.13.26-.13l1.69-.74c.81-.36,1.63-.69,2.46-1,.53-.21,1.06-.44,1.6-.63,1.87-.71,3.75-1.36,5.62-1.94l.55-.16c1.36-.41,2.72-.78,4.11-1.14l.44-.12c1.68-.43,3.36-.8,5.05-1.14a104.13,104.13,0,0,1,76.24,13.51l.17.09a.27.27,0,0,1,.16.06h0a15.28,15.28,0,0,1,2,1.24l.17.11a1.28,1.28,0,0,1,.64.38,62,62,0,0,1,7.36,5.16h0A105.59,105.59,0,0,1,603,849.27l2.07-1a108.65,108.65,0,0,1,11.9-5,103.17,103.17,0,0,1,59.75-2.71,111.31,111.31,0,0,1,79.5,78.36A124.38,124.38,0,0,1,761,952.76Zm74.87,155.34a7.55,7.55,0,0,0,3.38-2.76,6.72,6.72,0,0,0,1.11-3.74,5.77,5.77,0,0,0-3-5.35,13.09,13.09,0,0,0-2.93-1.23c-1.07-.31-2.15-.6-3.24-.85s-2.07-.51-3-.78a5.63,5.63,0,0,1-2.13-1.1,2.35,2.35,0,0,1-.81-1.86,2.81,2.81,0,0,1,.56-1.74,3.78,3.78,0,0,1,1.77-1.23,9,9,0,0,1,3.16-.47,13.21,13.21,0,0,1,3.48.49,13.9,13.9,0,0,1,3.5,1.5l1.49-3.66a13.25,13.25,0,0,0-3.91-1.66,18.25,18.25,0,0,0-4.52-.58,14,14,0,0,0-5.73,1,7.68,7.68,0,0,0-3.37,2.75,6.93,6.93,0,0,0-1.1,3.79,6.12,6.12,0,0,0,.83,3.32,6.32,6.32,0,0,0,2.16,2.08,13.35,13.35,0,0,0,2.92,1.27c1.08.32,2.15.61,3.22.85s2.05.5,2.93.77a6.46,6.46,0,0,1,2.16,1.12,2.36,2.36,0,0,1,.83,1.87,2.7,2.7,0,0,1-.58,1.68,3.84,3.84,0,0,1-1.81,1.18,9.86,9.86,0,0,1-3.22.43,13.36,13.36,0,0,1-4.59-.8,12.71,12.71,0,0,1-3.76-2l-1.63,3.66a12.45,12.45,0,0,0,4.3,2.19,19.1,19.1,0,0,0,5.68.85A14.09,14.09,0,0,0,835.86,1108.1Zm34.36.05a13.32,13.32,0,0,0,4.33-2.72,11.81,11.81,0,0,0,2.85-4.12,13.76,13.76,0,0,0,0-10.4,12.29,12.29,0,0,0-2.85-4.12,13.17,13.17,0,0,0-4.33-2.73,15.56,15.56,0,0,0-10.87,0,13.22,13.22,0,0,0-4.34,2.73,12.29,12.29,0,0,0-2.85,4.12,13.71,13.71,0,0,0,0,10.38,12.13,12.13,0,0,0,2.85,4.13,13.22,13.22,0,0,0,4.34,2.73,14.94,14.94,0,0,0,5.47,1A14.61,14.61,0,0,0,870.22,1108.15Zm-9-3.8a8,8,0,0,1-2.82-1.86,8.72,8.72,0,0,1-1.87-2.84,9.77,9.77,0,0,1,0-7.11,8.71,8.71,0,0,1,1.88-2.82,8.35,8.35,0,0,1,2.82-1.86,9.94,9.94,0,0,1,7.07,0,8.11,8.11,0,0,1,2.83,1.86,9,9,0,0,1,1.86,2.82,9.82,9.82,0,0,1,0,7.13,9,9,0,0,1-1.86,2.82,8.11,8.11,0,0,1-2.83,1.86,10,10,0,0,1-7.08,0Zm47.63,3.69a11.57,11.57,0,0,0,4.34-3.15l-3-2.89a8.82,8.82,0,0,1-3.08,2.26,9,9,0,0,1-3.69.74,9.69,9.69,0,0,1-3.63-.65,8.47,8.47,0,0,1-2.86-1.84,8.35,8.35,0,0,1-1.88-2.82,9.93,9.93,0,0,1,0-7.17,8.35,8.35,0,0,1,1.88-2.82,8.47,8.47,0,0,1,2.86-1.84,9.69,9.69,0,0,1,3.63-.65,9,9,0,0,1,3.69.74,9.37,9.37,0,0,1,3.08,2.22l3-2.85a11.31,11.31,0,0,0-4.34-3.17,15.61,15.61,0,0,0-11.07-.11,13.24,13.24,0,0,0-4.31,2.71,12.44,12.44,0,0,0-2.86,4.14,13.94,13.94,0,0,0,0,10.42,12.48,12.48,0,0,0,2.84,4.14,12.9,12.9,0,0,0,4.31,2.72,14.94,14.94,0,0,0,5.37,1A14.65,14.65,0,0,0,908.87,1108Zm21.22.72v-25.31h-4.7v25.31Zm16.08,0,9.76-22.82h-1.88l9.8,22.82h4.92l-11.43-25.31h-4.63l-11.39,25.31Zm16.6-5.85-1.27-3.69H947.83l-1.27,3.69Zm35.13,5.85v-4H984.66v-21.34H980v25.31Zm32.88-21.37h13.78v-3.94h-18.48v25.31h4.7Zm-.4,11.68H1043v-4h-12.63Zm30.91-11.68h13.78v-3.94h-18.48v25.31h19v-3.94h-14.29Zm-.36,10.45h12.59V1094h-12.59Zm32.25-10.45H1107v-3.94h-18.49v25.31h19v-3.94h-14.29Zm-.36,10.45h12.58V1094h-12.58Zm38.61,10.92a15.53,15.53,0,0,0,7.23-1.59,11.89,11.89,0,0,0,4.85-4.43,13.56,13.56,0,0,0,0-13.29,11.91,11.91,0,0,0-4.85-4.41,15.66,15.66,0,0,0-7.23-1.59h-11.07v25.31Zm-6.37-21.34h6.15a10.59,10.59,0,0,1,4.94,1.09,7.83,7.83,0,0,1,3.22,3,9.71,9.71,0,0,1,0,9.13,7.75,7.75,0,0,1-3.22,3,10.59,10.59,0,0,1-4.94,1.09h-6.15Zm59.46,21.34v-21.34h8.4v-4h-21.49v4h8.39v21.34Zm36.55-.61a13.27,13.27,0,0,0,4.32-2.72,11.83,11.83,0,0,0,2.86-4.12,13.89,13.89,0,0,0,0-10.4,12.31,12.31,0,0,0-2.86-4.12,13.13,13.13,0,0,0-4.32-2.73,15.56,15.56,0,0,0-10.87,0,13.22,13.22,0,0,0-4.34,2.73,12.46,12.46,0,0,0-2.86,4.12,13.84,13.84,0,0,0,0,10.38,12.3,12.3,0,0,0,2.86,4.13,13.22,13.22,0,0,0,4.34,2.73,14.94,14.94,0,0,0,5.47,1A14.61,14.61,0,0,0,1221.07,1108.15Zm-9-3.8a8.16,8.16,0,0,1-2.82-1.86,8.86,8.86,0,0,1-1.86-2.84,9.77,9.77,0,0,1,0-7.11,8.71,8.71,0,0,1,1.88-2.82,8.35,8.35,0,0,1,2.82-1.86,9.94,9.94,0,0,1,7.07,0,8,8,0,0,1,2.82,1.86,8.85,8.85,0,0,1,1.87,2.82,9.82,9.82,0,0,1,0,7.13,8.85,8.85,0,0,1-1.87,2.82,8,8,0,0,1-2.82,1.86,10,10,0,0,1-7.09,0Zm60.23,3.75a7.61,7.61,0,0,0,3.38-2.76,6.79,6.79,0,0,0,1.1-3.74,5.72,5.72,0,0,0-3-5.35,12.9,12.9,0,0,0-2.93-1.23c-1.07-.31-2.15-.6-3.23-.85s-2.07-.51-3-.78a5.76,5.76,0,0,1-2.14-1.1,2.35,2.35,0,0,1-.81-1.86,2.87,2.87,0,0,1,.56-1.74,3.89,3.89,0,0,1,1.77-1.23,9,9,0,0,1,3.17-.47,13.08,13.08,0,0,1,3.47.49,13.81,13.81,0,0,1,3.51,1.5l1.48-3.66a13.3,13.3,0,0,0-3.9-1.66,18.37,18.37,0,0,0-4.52-.58,14,14,0,0,0-5.74,1,7.65,7.65,0,0,0-3.36,2.75,6.85,6.85,0,0,0-1.1,3.79,6,6,0,0,0,.83,3.32,6.29,6.29,0,0,0,2.15,2.08,13.64,13.64,0,0,0,2.93,1.27c1.07.32,2.14.61,3.22.85s2,.5,2.93.77a6.4,6.4,0,0,1,2.15,1.12,2.36,2.36,0,0,1,.83,1.87,2.64,2.64,0,0,1-.58,1.68,3.79,3.79,0,0,1-1.81,1.18,9.8,9.8,0,0,1-3.21.43,13.46,13.46,0,0,1-4.6-.8,12.84,12.84,0,0,1-3.76-2l-1.63,3.66a12.5,12.5,0,0,0,4.31,2.19,19.1,19.1,0,0,0,5.68.85A14.12,14.12,0,0,0,1272.31,1108.1Zm34.36.05a13.38,13.38,0,0,0,4.32-2.72,12,12,0,0,0,2.86-4.12,13.89,13.89,0,0,0,0-10.4,12.46,12.46,0,0,0-2.86-4.12,13.23,13.23,0,0,0-4.32-2.73,15.56,15.56,0,0,0-10.87,0,13.22,13.22,0,0,0-4.34,2.73,12.31,12.31,0,0,0-2.86,4.12,13.84,13.84,0,0,0,0,10.38,12.16,12.16,0,0,0,2.86,4.13,13.22,13.22,0,0,0,4.34,2.73,14.85,14.85,0,0,0,5.46,1A14.62,14.62,0,0,0,1306.67,1108.15Zm-9-3.8a8,8,0,0,1-2.82-1.86,8.54,8.54,0,0,1-1.86-2.84,9.77,9.77,0,0,1,0-7.11,8.55,8.55,0,0,1,1.88-2.82,8.16,8.16,0,0,1,2.82-1.86,9.19,9.19,0,0,1,3.52-.65,9.34,9.34,0,0,1,3.55.65,8.16,8.16,0,0,1,2.82,1.86,8.66,8.66,0,0,1,1.86,2.82,9.82,9.82,0,0,1,0,7.13,8.66,8.66,0,0,1-1.86,2.82,8.16,8.16,0,0,1-2.82,1.86,10,10,0,0,1-7.09,0Zm47.63,3.69a11.5,11.5,0,0,0,4.34-3.15l-3-2.89a8.79,8.79,0,0,1-3.07,2.26,9.08,9.08,0,0,1-3.69.74,9.7,9.7,0,0,1-3.64-.65,8.43,8.43,0,0,1-2.85-1.84,8.53,8.53,0,0,1-1.89-2.82,9.93,9.93,0,0,1,0-7.17,8.53,8.53,0,0,1,1.89-2.82,8.43,8.43,0,0,1,2.85-1.84,9.7,9.7,0,0,1,3.64-.65,9.08,9.08,0,0,1,3.69.74,9.33,9.33,0,0,1,3.07,2.22l3-2.85a11.23,11.23,0,0,0-4.34-3.17,15.61,15.61,0,0,0-11.07-.11,13.2,13.2,0,0,0-4.3,2.71,12.29,12.29,0,0,0-2.86,4.14,13.94,13.94,0,0,0,0,10.42,12.19,12.19,0,0,0,2.84,4.14,12.86,12.86,0,0,0,4.3,2.72,15,15,0,0,0,5.38,1A14.6,14.6,0,0,0,1345.31,1108Zm21.23.72v-25.31h-4.7v25.31Zm16.07,0,9.77-22.82h-1.88l9.8,22.82h4.92l-11.43-25.31h-4.63l-11.4,25.31Zm16.6-5.85-1.26-3.69h-13.68l-1.26,3.69Zm35.14,5.85v-4h-13.24v-21.34h-4.7v25.31Zm32.84,0v-19.49h-1.91l15.87,19.49H1485v-25.31h-4.66v19.49h1.91l-15.87-19.49h-3.87v25.31Zm37.08-21.37h13.78v-3.94h-18.48v25.31h19v-3.94h-14.29Zm-.36,10.45h12.58V1094h-12.58Zm32.24-10.45h13.78v-3.94h-18.48v25.31h19v-3.94h-14.29Zm-.36,10.45h12.59V1094h-12.59Zm38.61,10.92a15.6,15.6,0,0,0,7.24-1.59,11.86,11.86,0,0,0,4.84-4.43,13.56,13.56,0,0,0,0-13.29,11.89,11.89,0,0,0-4.84-4.41,15.73,15.73,0,0,0-7.24-1.59h-11.07v25.31Zm-6.37-21.34h6.16a10.58,10.58,0,0,1,4.93,1.09,7.83,7.83,0,0,1,3.22,3,9.71,9.71,0,0,1,0,9.13,7.75,7.75,0,0,1-3.22,3,10.58,10.58,0,0,1-4.93,1.09H1568ZM848.2,938.13q0-11.24,8.19-18,8.65-7,23.39-7,33.93,0,33.93,32H937.1q0-25.5-15.44-40-15.21-14.26-41.88-14.27-25,0-40,13.34-15,12.87-15,33.92,0,38.83,57.31,46.79,18.72,2.8,26.91,8,9.35,6.09,9.35,17.78,0,12.17-9.59,19.18-9.82,7.26-26.67,7.26-38.6,0-38.6-33.46H820.13q0,26.21,16.61,41.18,16.6,14.51,45.38,14.5,27.14,0,43.52-13.57,16.14-13.34,16.14-35.09,0-40-59.66-48Q848.21,958.25,848.2,938.13Zm125.11,19.18q-17.53,17.09-17.54,43.52t17.54,43.51q17.31,17.31,44,17.31t44-17.31q17.55-17.07,17.55-43.51t-17.55-43.52Q1044,940,1017.29,940T973.31,957.31Zm16.61,70.89q-10.75-10.77-10.76-27.37t10.76-27.38q10.77-10.76,27.37-10.76t27.38,10.76q10.75,10.77,10.76,27.38t-10.76,27.37Q1033.9,1039,1017.29,1039T989.92,1028.2Zm195.72-21.53q0,15.21-8.89,23.87-8.67,8.88-23.87,8.89t-23.86-8.89q-8.89-8.65-8.89-23.87V942.34h-23.39V1009q0,22.93,13.8,37.67,14,15,36.5,15,24.32,0,38.6-17.55v15.21H1209v-117h-23.39Zm52.26-111.12v163.76h98.26v-22.22h-74.87V895.55Zm204.55,0L1391,1028.9l-51.46-133.35H1315l63.17,163.76h25.73L1467,895.55Zm38.16,0v163.76h107.61v-22.22H1504V988h77.2V965.73H1504v-48h84.22V895.55Z"/></svg>